TITLE ""
FILE "P1Q_t_1239-1248.mp3" MP3
  TRACK 01 AUDIO
    TITLE "P1Q_t_1239-1248_01"
    INDEX 01 00:00:00
  TRACK 02 AUDIO
    TITLE "P1Q_t_1239-1248_02"
    INDEX 01 00:01:39
  TRACK 03 AUDIO
    TITLE "P1Q_t_1239-1248_03"
    INDEX 01 00:01:61
  TRACK 04 AUDIO
    TITLE "P1Q_t_1239-1248_04"
    INDEX 01 00:02:70
  TRACK 05 AUDIO
    TITLE "P1Q_t_1239-1248_05"
    INDEX 01 00:03:15
  TRACK 06 AUDIO
    TITLE "P1Q_t_1239-1248_06"
    INDEX 01 00:06:72
  TRACK 07 AUDIO
    TITLE "P1Q_t_1239-1248_07"
    INDEX 01 00:07:46
  TRACK 08 AUDIO
    TITLE "P1Q_t_1239-1248_08"
    INDEX 01 00:08:74
  TRACK 09 AUDIO
    TITLE "P1Q_t_1239-1248_09"
    INDEX 01 00:09:19
  TRACK 10 AUDIO
    TITLE "P1Q_t_1239-1248_10"
    INDEX 01 00:11:65
  TRACK 11 AUDIO
    TITLE "P1Q_t_1239-1248_11"
    INDEX 01 00:12:10
  TRACK 12 AUDIO
    TITLE "P1Q_t_1239-1248_12"
    INDEX 01 00:16:00
  TRACK 13 AUDIO
    TITLE "P1Q_t_1239-1248_13"
    INDEX 01 00:16:45
  TRACK 14 AUDIO
    TITLE "P1Q_t_1239-1248_14"
    INDEX 01 00:17:44
  TRACK 15 AUDIO
    TITLE "P1Q_t_1239-1248_15"
    INDEX 01 00:17:64
  TRACK 16 AUDIO
    TITLE "P1Q_t_1239-1248_16"
    INDEX 01 00:20:42
  TRACK 17 AUDIO
    TITLE "P1Q_t_1239-1248_17"
    INDEX 01 00:20:62
  TRACK 18 AUDIO
    TITLE "P1Q_t_1239-1248_18"
    INDEX 01 00:24:09
  TRACK 19 AUDIO
    TITLE "P1Q_t_1239-1248_19"
    INDEX 01 00:24:56
  TRACK 20 AUDIO
    TITLE "P1Q_t_1239-1248_20"
    INDEX 01 00:26:18
  TRACK 21 AUDIO
    TITLE "P1Q_t_1239-1248_21"
    INDEX 01 00:26:39
  TRACK 22 AUDIO
    TITLE "P1Q_t_1239-1248_22"
    INDEX 01 00:30:04
  TRACK 23 AUDIO
    TITLE "P1Q_t_1239-1248_23"
    INDEX 01 00:30:23
  TRACK 24 AUDIO
    TITLE "P1Q_t_1239-1248_24"
    INDEX 01 00:34:64
  TRACK 25 AUDIO
    TITLE "P1Q_t_1239-1248_25"
    INDEX 01 00:35:38
  TRACK 26 AUDIO
    TITLE "P1Q_t_1239-1248_26"
    INDEX 01 00:36:55
  TRACK 27 AUDIO
    TITLE "P1Q_t_1239-1248_27"
    INDEX 01 00:36:73
  TRACK 28 AUDIO
    TITLE "P1Q_t_1239-1248_28"
    INDEX 01 00:38:38
  TRACK 29 AUDIO
    TITLE "P1Q_t_1239-1248_29"
    INDEX 01 00:38:58
  TRACK 30 AUDIO
    TITLE "P1Q_t_1239-1248_30"
    INDEX 01 00:43:47
  TRACK 31 AUDIO
    TITLE "P1Q_t_1239-1248_31"
    INDEX 01 00:44:17
  TRACK 32 AUDIO
    TITLE "P1Q_t_1239-1248_32"
    INDEX 01 00:45:17
  TRACK 33 AUDIO
    TITLE "P1Q_t_1239-1248_33"
    INDEX 01 00:45:38
  TRACK 34 AUDIO
    TITLE "P1Q_t_1239-1248_34"
    INDEX 01 00:47:69
  TRACK 35 AUDIO
    TITLE "P1Q_t_1239-1248_35"
    INDEX 01 00:48:13
  TRACK 36 AUDIO
    TITLE "P1Q_t_1239-1248_36"
    INDEX 01 00:52:62
  TRACK 37 AUDIO
    TITLE "P1Q_t_1239-1248_37"
    INDEX 01 00:53:36
  TRACK 38 AUDIO
    TITLE "P1Q_t_1239-1248_38"
    INDEX 01 00:54:51
  TRACK 39 AUDIO
    TITLE "P1Q_t_1239-1248_39"
    INDEX 01 00:54:71
  TRACK 40 AUDIO
    TITLE "P1Q_t_1239-1248_40"
    INDEX 01 00:59:46
  TRACK 41 AUDIO
    TITLE "P1Q_t_1239-1248_41"
    INDEX 01 00:59:66
  TRACK 42 AUDIO
    TITLE "P1Q_t_1239-1248_42"
    INDEX 01 01:03:50
  TRACK 43 AUDIO
    TITLE "P1Q_t_1239-1248_43"
    INDEX 01 01:04:22
  TRACK 44 AUDIO
    TITLE "P1Q_t_1239-1248_44"
    INDEX 01 01:05:39
  TRACK 45 AUDIO
    TITLE "P1Q_t_1239-1248_45"
    INDEX 01 01:05:61
  TRACK 46 AUDIO
    TITLE "P1Q_t_1239-1248_46"
    INDEX 01 01:08:18
  TRACK 47 AUDIO
    TITLE "P1Q_t_1239-1248_47"
    INDEX 01 01:08:39
  TRACK 48 AUDIO
    TITLE "P1Q_t_1239-1248_48"
    INDEX 01 01:13:11
  TRACK 49 AUDIO
    TITLE "P1Q_t_1239-1248_49"
    INDEX 01 01:13:58
  TRACK 50 AUDIO
    TITLE "P1Q_t_1239-1248_50"
    INDEX 01 01:14:62
  TRACK 51 AUDIO
    TITLE "P1Q_t_1239-1248_51"
    INDEX 01 01:15:10
  TRACK 52 AUDIO
    TITLE "P1Q_t_1239-1248_52"
    INDEX 01 01:18:65
  TRACK 53 AUDIO
    TITLE "P1Q_t_1239-1248_53"
    INDEX 01 01:19:08
  TRACK 54 AUDIO
    TITLE "P1Q_t_1239-1248_54"
    INDEX 01 01:24:27
  TRACK 55 AUDIO
    TITLE "P1Q_t_1239-1248_55"
    INDEX 01 01:24:72
  TRACK 56 AUDIO
    TITLE "P1Q_t_1239-1248_56"
    INDEX 01 01:26:18
  TRACK 57 AUDIO
    TITLE "P1Q_t_1239-1248_57"
    INDEX 01 01:26:39
  TRACK 58 AUDIO
    TITLE "P1Q_t_1239-1248_58"
    INDEX 01 01:28:23
  TRACK 59 AUDIO
    TITLE "P1Q_t_1239-1248_59"
    INDEX 01 01:28:42
  TRACK 60 AUDIO
    TITLE "P1Q_t_1239-1248_60"
    INDEX 01 01:33:08
